<svg xmlns="http://www.w3.org/2000/svg" width="1024" height="1024"><path fill="#443E2F" d="M0 0h1024v1024H0z" id="svg-layer-0" style="pointer-events: all;"/><path fill="#222224" d="M0 0h1024v1024H0zm74 129c-6.128 8.42-8.302 15.745-8.26 26.044l-.012 3.07c-.01 3.41-.006 6.82-.002 10.23l-.016 7.389q-.016 8.046-.016 16.091c.001 7.977-.01 15.953-.022 23.93a38467 38467 0 0 0-.039 47.716v2.497l-.001 2.501q-.006 13.72-.016 27.439a136069 136069 0 0 0-.042 104.38v2.699a70426 70426 0 0 1-.061 83.945 73319 73319 0 0 0-.065 104.36v2.5c-.002 13.282-.019 26.562-.042 39.843q-.034 20.025-.013 40.05.015 11.895-.023 23.788c-.017 5.924-.009 11.848.01 17.771q.005 3.593-.016 7.183c-.09 16.155.381 28.193 12.175 40.379 9.909 8.839 19.679 10.503 32.546 10.436l3.647.005q4.984.002 9.968-.014c3.59-.009 7.179-.006 10.768-.004q9.32.001 18.64-.017c8.984-.016 17.967-.021 26.95-.024q21.864-.007 43.729-.036a60908 60908 0 0 1 58.256-.05c36.319-.021 72.638-.058 108.957-.101v59h-68v76h378v-76h-68v-59l26.738.048a99274 99274 0 0 0 97.896.117l2.647.002q21.209.022 42.416.064 21.768.043 43.535.051 13.428.005 26.856.042 9.212.023 18.425.017a2085 2085 0 0 1 10.624.017c3.846.017 7.691.01 11.537.003l3.366.026c11.577-.066 20.85-3.005 29.585-10.7 8.393-9.497 11.847-17.3 11.758-30.1l.015-3.08c.013-3.404.005-6.807-.004-10.21q.007-3.7.019-7.398.02-8.04.012-16.08c-.007-7.972.003-15.943.017-23.914.025-15.065.03-30.13.027-45.195a45867 45867 0 0 1 .013-39.917l.002-2.514.002-2.52.001-2.523q.024-35.13.018-70.262v-2.675l-.003-13.424v-2.693l-.002-5.391q-.008-41.944.042-83.887a72183 72183 0 0 0 .05-104.311l-.001-2.5q0-18.675.03-37.352.032-21.243.005-42.484c-.01-7.923-.007-15.845.017-23.768.016-5.919.005-11.837-.015-17.756q-.006-3.588.013-7.177c.086-16.288-.443-28.152-12.305-40.427-6.557-5.976-13.423-9.377-22.43-9.382l-3.665-.017-4.007.013-4.29-.01c-3.941-.01-7.883-.007-11.825-.002-4.283.003-8.567-.005-12.85-.012a13684 13684 0 0 0-22.535-.011c-11.17.003-22.341-.006-33.511-.016-21.11-.02-42.22-.025-63.329-.026a146203 146203 0 0 1-62.963-.017l-3.532-.001q-49.188-.02-98.376-.02h-3.748l-18.807.001H569.14q-58.77.002-117.538-.04a178324 178324 0 0 0-146.064-.046h-3.499c-18.6 0-37.2-.013-55.8-.03q-28.03-.026-56.06-.006-16.66.012-33.32-.016a6261 6261 0 0 0-22.249.005c-4.227.008-8.455.01-12.682-.007q-5.771-.02-11.543.008c-2.032.005-4.064-.01-6.096-.025-12.984.101-21.545 3.863-30.29 13.528" id="svg-layer-1" style="pointer-events: all;"/><path fill="#FCC964" d="m100.094 115.747 3.665-.017 4.007.013 4.29-.01c3.941-.01 7.883-.007 11.825-.002 4.283.003 8.567-.005 12.85-.012q11.268-.014 22.535-.011c11.17.003 22.341-.006 33.511-.016 21.11-.02 42.22-.025 63.329-.026a146203 146203 0 0 0 62.963-.017l3.532-.001a244407 244407 0 0 1 120.931-.019h11.327q58.77.002 117.538-.04a178324 178324 0 0 1 146.064-.046h3.499c18.6 0 37.2-.013 55.8-.03q28.03-.026 56.06-.006 16.66.012 33.32-.016 11.125-.018 22.249.005c4.227.008 8.455.01 12.682-.007q5.771-.02 11.543.008c2.032.005 4.064-.01 6.096-.025 11.698.091 19.542 2.928 28.024 11.024 7.777 8.595 10.573 17.173 10.523 28.55l.01 3.071c.01 3.411.005 6.822 0 10.233l.014 7.392q.014 8.047.011 16.096c-.003 7.978.006 15.957.016 23.935.02 15.08.025 30.159.026 45.238a74666 74666 0 0 0 .017 44.988l.001 2.524q.02 35.154.02 70.308v2.679l-.001 13.438v8.093q-.002 41.982.04 83.966a91021 91021 0 0 1 .046 104.378v2.502c0 13.284.013 26.57.03 39.854q.026 20.029.006 40.057-.012 11.898.016 23.795c.013 5.924.006 11.848-.01 17.771q-.005 3.594.012 7.187c.014 3.258.003 6.515-.013 9.773l.03 2.815c-.116 10.77-3.915 20.188-11.528 27.861-7.76 6.276-16.12 10.127-26.191 10.123l-3.123.006-3.41-.009-3.64.003q-4.994.001-9.987-.007-5.388-.005-10.775-.002-9.332 0-18.665-.008-13.492-.011-26.986-.012-21.892-.004-43.783-.019-21.265-.014-42.532-.02h-2.648l-13.152-.005Q687.553 773.034 633 773v59h68v76H323v-76h68v-59l-26.738.048a99274 99274 0 0 1-97.896.117l-2.647.002q-21.209.022-42.416.064-21.768.043-43.535.051-13.428.005-26.856.042-9.212.023-18.425.017a2085 2085 0 0 0-10.624.017c-3.846.017-7.691.01-11.537.003l-3.366.026c-12.012-.069-21.211-3.247-30.124-11.356-12.282-12.695-11.555-26.48-11.47-43.096q-.01-3.703-.025-7.405-.024-8.035-.004-16.07c.019-7.965.009-15.93-.006-23.896-.027-14.228-.024-28.457-.01-42.685q.02-18.678.01-37.355l-.001-2.505-.005-10.065c-.015-31.462-.001-62.925.025-94.387q.035-41.914-.002-83.828a70069 70069 0 0 1-.017-104.263l.001-2.499q.008-18.663-.013-37.328-.023-21.225.016-42.45.024-11.875-.003-23.749c-.013-5.913 0-11.827.025-17.74q.008-3.585-.01-7.17c-.076-16.28.463-28.144 12.317-40.411 6.557-5.976 13.423-9.377 22.43-9.382M144 181c-3.172 5.232-3.43 9.905-3.378 15.838l-.013 2.638c-.01 2.919 0 5.837.01 8.756q-.005 3.17-.014 6.339c-.013 5.808-.006 11.617.003 17.425.007 6.263-.004 12.526-.012 18.79q-.018 17.34-.003 34.683.011 16.02.006 32.04l-.001 2.146-.003 8.626c-.01 26.974 0 53.949.015 80.923q.021 35.952-.001 71.902a85848 85848 0 0 0-.01 91.527q.005 16.01-.008 32.02-.013 18.204.01 36.408.013 9.29.001 18.583-.013 8.5.012 17.002.005 3.08-.006 6.159c-.009 2.786 0 5.571.014 8.357l-.02 2.428c.056 5.676.836 10.48 4.728 14.931 5.291 4.553 11.108 4.178 17.785 4.111l3.71.023c3.404.016 6.805.01 10.207-.006 3.7-.012 7.4.005 11.101.018q9.73.028 19.459.01c9.645-.017 19.29-.005 28.935.012 17.226.03 34.451.032 51.677.021a38353 38353 0 0 1 51.286.001l9.135.005c28.316.015 56.631.02 84.947.006l3.235-.002 26.015-.015c33.829-.02 67.658-.01 101.487.022a86508 86508 0 0 0 126.13.037l3.02-.001c15.066-.005 30.132.006 45.198.024 17.129.02 34.257.02 51.386-.008q14.385-.026 28.77.01 9.603.021 19.206-.016c3.65-.014 7.3-.018 10.95.005 3.93.024 7.86.001 11.79-.026l3.44.044c6.368-.09 10.466-.904 15.318-5.188 4.128-4.476 3.77-9.413 3.737-15.215l.01-2.636c.009-2.93.003-5.858-.003-8.787l.011-6.346c.01-5.824.008-11.648.004-17.472-.002-6.277.007-12.554.014-18.83q.018-18.453.012-36.905a48886 48886 0 0 1 .01-40.783q.013-30.172.008-60.343v-2.298l-.003-11.534v-2.313l-.002-4.633q-.007-36.041.021-72.082a88352 88352 0 0 0 .027-89.592v-2.147q-.001-16.05.015-32.1.019-18.25.002-36.5-.011-9.315.005-18.631.014-8.524-.007-17.047-.004-3.087.008-6.175c.01-2.794.002-5.587-.011-8.38l.022-2.434c-.05-5.197-.961-8.808-3.397-13.425-4.162-3.954-7.324-5.124-12.98-5.13l-3.142-.01-3.47.003-3.686-.008q-5.098-.008-10.195-.008-5.535-.003-11.068-.014-10.99-.016-21.98-.02-13.158-.01-26.316-.027c-21.204-.026-42.408-.041-63.612-.054l-21.065-.013a325341 325341 0 0 0-137.89-.07h-3.256q-52.267-.02-104.536-.085a102510 102510 0 0 0-122.59-.077h-3.016a33696 33696 0 0 1-48.083-.051q-24.153-.04-48.308-.023-14.358.01-28.716-.03-9.585-.025-19.171 0c-3.644.008-7.287.008-10.93-.013-3.924-.023-7.846-.007-11.77.012l-3.434-.039c-6.703.073-11.855.813-16.786 5.657" id="svg-layer-2" style="pointer-events: all;"/><path fill="#FCC964" d="m517 205 3.247 1.426 3.546 1.672 1.972.927a2709 2709 0 0 1 6.423 3.037l4.545 2.146c11.497 5.437 22.937 10.986 34.365 16.565 9.505 4.638 19.041 9.186 28.652 13.602 12.194 5.604 24.25 11.472 36.301 17.374 10.227 5.007 20.474 9.941 30.824 14.688 13.545 6.216 26.925 12.757 40.302 19.323A2314 2314 0 0 0 741 312c-4.114 66.531-19.045 134.726-48 195l-1.367 2.862C682.323 529.243 672.005 547.84 659 565l-1.307 1.74c-6.725 8.91-13.947 17.225-21.693 25.26l-1.619 1.685C627.324 600.995 620.096 607.83 612 614l-3.059 2.352C593.371 628.038 576.198 637.164 558 644l-2.187.834c-9.305 3.496-18.72 5.974-28.438 8.041l-3.053.653c-26.388 5.318-57.558-6.82-80.483-19.514a301 301 0 0 0-5.8-3.092C412.936 617.567 390.487 597.302 373 575l-2.012-2.45c-51.717-63.096-75.256-149.016-85.3-228.55l-.484-3.806c-1.124-9.384-1.733-18.76-2.204-28.194 32.965-16.125 32.965-16.125 48.625-23.312 12.624-5.8 25.095-11.893 37.567-18.008 11.671-5.72 23.38-11.32 35.195-16.739 10.113-4.66 20.113-9.543 30.113-14.441 12.419-6.082 24.86-12.082 37.44-17.826a541 541 0 0 0 18.013-8.65l4.01-2.001a563 563 0 0 0 7.625-3.884l3.467-1.729 3.046-1.558c3.765-1.106 5.34-.42 8.899 1.148" id="svg-layer-3" style="pointer-events: all;"/><path fill="#443E2F" d="m524.035 288.797 2.37 1.166q2.52 1.24 5.035 2.487c4.442 2.202 8.894 4.384 13.345 6.566l2.686 1.317c7.131 3.49 14.31 6.86 21.529 10.167 12.103 5.554 24.063 11.378 36.021 17.235 11.98 5.865 24.002 11.61 36.127 17.17A510 510 0 0 1 660 354c.392 8.69-1.054 17.03-2.5 25.563l-.401 2.388C651.48 415.061 643.003 448.808 628 479l-1.335 2.72C620.348 494.496 613.564 506.594 605 518l-2.078 2.777c-21.8 28.047-51.86 50.584-87.93 55.496-26.675 1.28-55.148-16.407-74.054-33.546q-1.47-1.362-2.938-2.727l-2.25-2.04C390.928 495.49 369.025 421.773 364 362c-.05-2.67-.032-5.33 0-8 14.778-7.204 29.561-14.383 44.5-21.25 11.416-5.252 22.715-10.724 34-16.25 12.606-6.173 25.24-12.26 38-18.11 5.27-2.416 10.512-4.868 15.707-7.44l2.943-1.448a445 445 0 0 0 5.372-2.698l2.38-1.171 2.047-1.035c5.348-1.56 10.415 1.863 15.086 4.199" id="svg-layer-4" style="pointer-events: all;"/></svg>